# xmcd
#
# Track frame offsets:
# 183
# 11878
# 23798
# 36915
# 48568
# 62715
# 75998
# 88095
# 101668
# 113933
# 125260
# 137343
# 149370
# 162708
#
# Disc length: 2363 seconds
#
#
# Revision: 0
# Processed by: cddbd v1.5.1PL0 Copyright (c) Steve Scherf et al.
# Submitted via: FreeRIP 2.80 
#
DISCID=bd09390e
DTITLE=J. B. Summers - J. B. Summers and the Blues Shouters
DYEAR=1990
DGENRE=Blues
TTITLE0=Hey Mr. J. B.
TTITLE1=My Baby Left Me
TTITLE2=Drinking Beer
TTITLE3=I Want A Present For Christmas
TTITLE4=Merry-Go-Round
TTITLE5=Back Door Mama
TTITLE6=Stranger In Town
TTITLE7=Ain't It Lonesome
TTITLE8=Bring That Cadillac Back
TTITLE9=Give Me Some More Of That Real Fine Loving
TTITLE10=Pappa
TTITLE11=Slick Baby
TTITLE12=Fat Man
TTITLE13=Fat Sam From Birmingham
EXTD=Collectables Records Corp. COL-5333
EXTT0=
EXTT1=
EXTT2=
EXTT3=
EXTT4=
EXTT5=
EXTT6=
EXTT7=
EXTT8=
EXTT9=
EXTT10=
EXTT11=
EXTT12=
EXTT13=
PLAYORDER=
